<svg
  xmlns="http://www.w3.org/2000/svg"
  viewBox="0 0 100 100"
  style="enable-background: new 0 0 100 100"
  xml:space="preserve"
>
  <path d="M0 0h100v100H0V0z" style="fill: none" />
  <path
    d="M75 25H55v10h20c8.2 0 15 6.8 15 15s-6.8 15-15 15H55v10h20c13.8 0 25-11.2 25-25S88.8 25 75 25zM45 65H25c-8.2 0-15-6.8-15-15s6.8-15 15-15h20V25H25C11.2 25 0 36.2 0 50s11.2 25 25 25h20V65zM30 45h40v10H30V45zm45-20H55v10h20c8.2 0 15 6.8 15 15s-6.8 15-15 15H55v10h20c13.8 0 25-11.2 25-25S88.8 25 75 25zM45 65H25c-8.2 0-15-6.8-15-15s6.8-15 15-15h20V25H25C11.2 25 0 36.2 0 50s11.2 25 25 25h20V65zM30 45h40v10H30V45z"
  />
</svg>
